Coordinates
version=1
nRows=17
nColumns=33
inDegrees=yes

Units are S.I. units (second, meters, Newtons, ...)
Angles are in degrees.

endheader
time	ground_thorax_rot_x	ground_thorax_rot_y	ground_thorax_rot_z	ground_thorax_tx	ground_thorax_ty	ground_thorax_tz	clav_prot_r	clav_elev_r	scapula_abduction_r	scapula_elevation_r	scapula_upward_rot_r	scapula_winging_r	shoulder_elv_r	plane_of_elev_r	axial_rot_r	elbow_flexion_r	pro_sup_r	wrist_flex_r	wrist_dev_r	clav_prot_l	clav_elev_l	scapula_abduction_l	scapula_elevation_l	scapula_upward_rot_l	scapula_winging_l	shoulder_elv_l	plane_of_elev_l	axial_rot_l	elbow_flexion_l	pro_sup_l	wrist_flex_l	wrist_dev_l	
1.9300	0.194913	3.493014	11.987427	-0.109093	1.027234	0.022212	8.546190	-10.609705	15.281916	-3.674735	0.535623	-2.654522	-47.065572	-74.194482	91.748284	-78.850597	-150.225712	41.286550	-23.676568	8.118024	-2.636272	-8.853976	-18.594818	-33.620776	-2.394696	62.783414	-28.746176	3.853008	69.689501	18.992120	11.478822	-23.579299	
1.9400	0.123420	3.486583	12.034230	-0.109484	1.027173	0.022159	8.693297	-10.670870	15.645893	-3.823479	0.766254	-2.778626	-45.913487	-74.040995	92.639273	-79.527591	-150.742923	39.401910	-22.901400	8.307047	-2.822052	-9.194819	-18.345892	-33.496860	-2.225033	63.073275	-28.236407	3.934439	69.601389	18.817497	12.656843	-22.893036	
1.9500	0.041847	3.490435	12.083091	-0.109895	1.027101	0.022094	8.849692	-10.740978	16.035119	-3.987505	1.015444	-2.909620	-44.743490	-73.859687	93.516528	-80.173684	-151.372838	37.439837	-21.800533	8.535324	-3.021486	-9.611052	-18.098263	-33.405338	-2.029223	63.347257	-27.702661	4.037223	69.465878	18.627935	13.750894	-22.030457	
1.9600	-0.040898	3.507544	12.136434	-0.110315	1.027017	0.022014	9.012405	-10.825217	16.441289	-4.168624	1.276401	-3.041207	-43.565615	-73.663792	94.364735	-80.776057	-152.085153	35.484958	-20.501895	8.795321	-3.233733	-10.087537	-17.849607	-33.338980	-1.811841	63.599969	-27.143270	4.151560	69.265675	18.422352	14.764860	-21.114622	
1.9700	-0.135226	3.532432	12.194236	-0.110753	1.026901	0.021918	9.183820	-10.916109	16.865976	-4.357957	1.544376	-3.177220	-42.314648	-73.441084	95.262805	-81.341040	-152.908376	33.417502	-18.927826	9.096669	-3.451926	-10.642505	-17.614042	-33.313760	-1.567649	63.834100	-26.559698	4.316433	69.024976	18.181787	15.755746	-20.120317	
1.9800	-0.232383	3.572728	12.262721	-0.111207	1.026771	0.021803	9.359439	-11.026831	17.287778	-4.555866	1.790770	-3.302434	-40.943768	-73.203094	96.236369	-81.846846	-153.775292	31.328291	-17.246713	9.434549	-3.675342	-11.265644	-17.388808	-33.322256	-1.298751	64.042540	-25.939997	4.516629	68.708453	17.919543	16.717082	-19.148214	
1.9900	-0.347579	3.621657	12.335833	-0.111674	1.026633	0.021669	9.538486	-11.159989	17.709991	-4.768274	2.024673	-3.417015	-39.424811	-72.935454	97.331115	-82.275117	-154.665044	29.168963	-15.460818	9.807330	-3.897591	-11.952545	-17.177929	-33.359792	-1.006364	64.233911	-25.297295	4.770302	68.337618	17.635363	17.678063	-18.171247	
2.0000	-0.469440	3.689815	12.407304	-0.112134	1.026506	0.021512	9.710500	-11.321107	18.125908	-5.009396	2.268481	-3.515943	-37.831260	-72.647512	98.467189	-82.580726	-155.492223	27.122735	-13.734846	10.203890	-4.116085	-12.678516	-16.968332	-33.393536	-0.694534	64.393924	-24.627237	5.031026	67.886027	17.356782	18.551449	-17.275080	
2.0100	-0.606049	3.767562	12.480584	-0.112587	1.026371	0.021341	9.881571	-11.494980	18.551443	-5.270522	2.534986	-3.612258	-36.171061	-72.323233	99.666692	-82.765265	-156.280188	25.074519	-12.004434	10.624889	-4.327194	-13.444690	-16.764862	-33.426466	-0.363023	64.523842	-23.947810	5.322379	67.380072	17.066772	19.388520	-16.415626	
2.0200	-0.743232	3.861621	12.556760	-0.113024	1.026255	0.021157	10.050312	-11.693498	18.984510	-5.562220	2.824042	-3.699051	-34.509782	-71.978422	100.845222	-82.801649	-156.974277	23.164873	-10.396057	11.054168	-4.536394	-14.219903	-16.552930	-33.438144	-0.021379	64.620750	-23.256630	5.598094	66.791616	16.790593	20.138742	-15.640928	
2.0300	-0.885806	3.962630	12.634962	-0.113439	1.026140	0.020967	10.219997	-11.904405	19.436603	-5.878113	3.147692	-3.786504	-32.862852	-71.603425	102.010289	-82.697660	-157.594547	21.322319	-8.854628	11.489114	-4.738572	-14.999483	-16.338900	-33.431610	0.328145	64.686233	-22.559834	5.880482	66.136640	16.514820	20.839981	-14.923073	
2.0400	-1.025403	4.075232	12.706519	-0.113820	1.026033	0.020773	10.389556	-12.134411	19.910157	-6.227145	3.513987	-3.871495	-31.284242	-71.211635	103.098905	-82.445709	-158.119145	19.626721	-7.450342	11.916587	-4.937134	-15.758635	-16.113308	-33.392778	0.676881	64.729787	-21.856481	6.131547	65.411931	16.260111	21.468049	-14.282888	
2.0500	-1.162980	4.192766	12.782229	-0.114185	1.025902	0.020577	10.564840	-12.368195	20.399319	-6.582992	3.892110	-3.958600	-29.677948	-70.795206	104.208389	-82.075692	-158.594131	17.950993	-6.067113	12.351288	-5.126109	-16.527057	-15.895197	-33.351018	1.033891	64.742330	-21.135304	6.399065	64.632096	15.995823	22.084920	-13.668265	
2.0600	-1.298248	4.321383	12.856478	-0.114519	1.025772	0.020372	10.743806	-12.626555	20.899476	-6.962953	4.279122	-4.034812	-28.095070	-70.370747	105.274561	-81.575763	-158.995760	16.402398	-4.801930	12.776884	-5.311431	-17.274550	-15.672992	-33.292336	1.386723	64.747109	-20.407078	6.632493	63.799927	15.753240	22.655902	-13.099985	
2.0700	-1.436479	4.454766	12.922170	-0.114821	1.025633	0.020155	10.920495	-12.892979	21.405444	-7.355527	4.683678	-4.105932	-26.476781	-69.922991	106.371700	-80.949674	-159.334022	14.909997	-3.591452	13.204434	-5.481160	-18.021494	-15.460800	-33.223982	1.743987	64.727968	-19.657143	6.878476	62.922066	15.512847	23.205664	-12.558298	
2.0800	-1.580908	4.598912	12.962955	-0.115065	1.025519	0.019923	11.095072	-13.181649	21.927795	-7.781220	5.125844	-4.168485	-24.918720	-69.446620	107.391704	-80.179490	-159.575912	13.568934	-2.528837	13.615486	-5.644281	-18.732415	-15.237840	-33.118291	2.092527	64.709472	-18.906885	7.086376	62.006389	15.310734	23.691169	-12.070617	
2.0900	-1.730184	4.746931	12.994906	-0.115268	1.025423	0.019682	11.269914	-13.474339	22.461438	-8.215777	5.586823	-4.228473	-23.356029	-68.932450	108.404019	-79.280230	-159.745952	12.285597	-1.529714	14.022661	-5.797462	-19.432615	-15.015877	-32.994515	2.440825	64.673087	-18.150168	7.294429	61.045383	15.125157	24.150105	-11.603925	
